<?xml version="1.0" encoding="utf-8"?>
<svg viewBox="0 0 75 75" width="150" height="150" xmlns="http://www.w3.org/2000/svg">
  <svg viewBox="0 0 615.6463525308357 184.3736834338507" height="118.45027420690212" width="395.5199999999999" transform="matrix(0.642447, 0, 0, 0.642447, 0, 0)">
    <g transform="matrix(1,0,0,1,220.1263525308356,54.32544422524374)">
      <svg viewBox="0 0 395.52000000000004 75.7227949833632" height="75.7227949833632" width="395.52000000000004">
        <g>
          <svg viewBox="0 0 395.52000000000004 75.7227949833632" height="75.7227949833632" width="395.52000000000004">
            <g>
              <svg viewBox="0 0 395.52000000000004 75.7227949833632" height="75.7227949833632" width="395.52000000000004">
                <g transform="matrix(1,0,0,1,0,0)">
                  <svg width="395.52000000000004" viewBox="3.609999895095825 -36.040000915527344 190.75999450683594 36.53000259399414" height="75.7227949833632" data-palette-color="#ffdb99"/>
                </g>
              </svg>
            </g>
          </svg>
        </g>
      </svg>
    </g>
    <g>
      <svg viewBox="0 0 184.3736834338507 184.3736834338507" height="184.3736834338507" width="184.3736834338507">
        <g>
          <svg/>
        </g>
        <g id="icon-0">
          <svg viewBox="0 0 184.3736834338507 184.3736834338507" height="184.3736834338507" width="184.3736834338507">
            <g>
              <path d="M0 92.187c0-50.913 41.273-92.187 92.187-92.187 50.913 0 92.187 41.273 92.187 92.187 0 50.913-41.273 92.187-92.187 92.187-50.913 0-92.187-41.273-92.187-92.187zM92.187 177.545c47.142 0 85.358-38.216 85.358-85.358 0-47.142-38.216-85.358-85.358-85.358-47.142 0-85.358 38.216-85.358 85.358 0 47.142 38.216 85.358 85.358 85.358z" data-fill-palette-color="accent" fill="#ff5db2" stroke="transparent"/>
            </g>
            <g transform="matrix(1,0,0,1,38.83848609128825,62.344303467998856)">
              <svg viewBox="0 0 106.69671125127418 59.68507649785298" height="59.68507649785298" width="106.69671125127418">
                <g>
                  <svg version="1.1" xmlns="http://www.w3.org/2000/svg" x="0" y="0" viewBox="1.8569999933242798 26.402000427246094 100 55.939002990722656" enable-background="new 1.857 26.402 100 55.938" width="106.69671125127418" height="59.68507649785298" class="icon-x-0" data-fill-palette-color="accent" id="x-0">
                    <path d="M18.887 26.402l50.194 5.42 23.748 13.597 1.418 2.696 7.61 3.896c0 0-1.128 8.168-11.441 5.473l-16.81-5.537L58.622 62.047l-6.24 20.294h-8.09V62.025H16.049L9.946 82.341H1.857V52.232L18.887 26.402z" fill="#ff5db2" data-fill-palette-color="accent"/>
                    <polygon points="72.629,55.141 63.472,68.375 68.544,82.341 76.745,82.341 " fill="#ff5db2" data-fill-palette-color="accent"/>
                    <polygon points="24.363,74.452 32.654,63.586 35.635,82.341 27.403,82.341 " fill="#ff5db2" data-fill-palette-color="accent"/>
                  </svg>
                </g>
              </svg>
            </g>
          </svg>
        </g>
      </svg>
    </g>
  </svg>
</svg>