<svg xmlns="http://www.w3.org/2000/svg" version="1.1"  width="1000" height="297" viewBox="0 0 1000 297"><g transform="matrix(1,0,0,1,-0.606051190822825,0.5669145863883216)">
    <svg viewBox="0 0 396 118" data-background-color="#1f0f53" preserveAspectRatio="xMidYMid meet" height="297" width="1000" xmlns="http://www.w3.org/2000/svg" xmlns:xlink="http://www.w3.org/1999/xlink">
    <defs>
    </defs><g id="tight-bounds" transform="matrix(1,0,0,1,0.23999627156584324,-0.22523879189839136)"><svg viewBox="0 0 395.5199999999999 118.45027420690212" height="118.45027420690212" width="395.5199999999999"><g>
    <svg viewBox="0 0 615.6463525308357 184.3736834338507" height="118.45027420690212" width="395.5199999999999"><g transform="matrix(1,0,0,1,220.1263525308356,54.32544422524374)">
    <svg viewBox="0 0 395.52000000000004 75.7227949833632" height="75.7227949833632" width="395.52000000000004"><g><svg viewBox="0 0 395.52000000000004 75.7227949833632" height="75.7227949833632" width="395.52000000000004"><g>
    <svg viewBox="0 0 395.52000000000004 75.7227949833632" height="75.7227949833632" width="395.52000000000004"><g transform="matrix(1,0,0,1,0,0)">
    <svg width="395.52000000000004" viewBox="3.609999895095825 -36.040000915527344 190.75999450683594 36.53000259399414" height="75.7227949833632" data-palette-color="#ffdb99">
    <path d="M16.58 0L3.61 0 3.61-35.55 15.8-35.55Q21.83-35.55 24.98-33.13 28.13-30.71 28.13-25.93L28.13-25.93Q28.13-23.49 26.81-21.53 25.49-19.58 22.95-18.51L22.95-18.51Q25.83-17.72 27.4-15.56 28.98-13.4 28.98-10.38L28.98-10.38Q28.98-5.37 25.77-2.69 22.56 0 16.58 0L16.58 0ZM17.16-16.04L9.79-16.04 9.79-4.93 16.65-4.93Q19.56-4.93 21.19-6.37 22.83-7.81 22.83-10.38L22.83-10.38Q22.83-15.92 17.16-16.04L17.16-16.04ZM9.79-30.57L9.79-20.58 15.84-20.58Q18.73-20.58 20.35-21.89 21.97-23.19 21.97-25.59L21.97-25.59Q21.97-28.22 20.47-29.39 18.97-30.57 15.8-30.57L15.8-30.57 9.79-30.57ZM55.93-20.75L55.93-15.87 41.33-15.87 41.33-4.93 58.4-4.93 58.4 0 35.15 0 35.15-35.55 58.23-35.55 58.23-30.57 41.33-30.57 41.33-20.75 55.93-20.75ZM86.23 0L83.32-8.28 69.55-8.28 66.67 0 60.25 0 73.68-35.55 79.22-35.55 92.67 0 86.23 0ZM76.44-28L71.28-13.26 81.59-13.26 76.44-28ZM116.89 0L109.76-13.7 102.87-13.7 102.87 0 96.7 0 96.7-35.55 109.2-35.55Q115.35-35.55 118.69-32.79 122.04-30.03 122.04-24.8L122.04-24.8Q122.04-21.24 120.32-18.84 118.6-16.43 115.52-15.14L115.52-15.14 123.5-0.32 123.5 0 116.89 0ZM102.87-30.57L102.87-18.65 109.22-18.65Q112.35-18.65 114.1-20.23 115.86-21.8 115.86-24.54L115.86-24.54Q115.86-27.39 114.24-28.96 112.61-30.52 109.39-30.57L109.39-30.57 102.87-30.57ZM131.02-6.25L131.02-6.25Q132.68-6.25 133.58-5.31 134.49-4.37 134.49-2.95L134.49-2.95Q134.49-1.56 133.58-0.65 132.68 0.27 131.02 0.27L131.02 0.27Q129.43 0.27 128.51-0.63 127.58-1.54 127.58-2.95 127.58-4.37 128.48-5.31 129.38-6.25 131.02-6.25ZM156.41-10.64L156.41-35.55 162.56-35.55 162.56-10.62Q162.56-5.52 159.37-2.51 156.19 0.49 150.96 0.49L150.96 0.49Q145.4 0.49 142.37-2.32 139.34-5.13 139.34-10.13L139.34-10.13 145.5-10.13Q145.5-7.3 146.9-5.87 148.3-4.44 150.96-4.44L150.96-4.44Q153.45-4.44 154.93-6.09 156.41-7.74 156.41-10.64L156.41-10.64ZM188.19-9.16L188.19-9.16Q188.19-11.5 186.55-12.77 184.9-14.04 180.6-15.33 176.3-16.63 173.76-18.21L173.76-18.21Q168.91-21.26 168.91-26.17L168.91-26.17Q168.91-30.47 172.41-33.25 175.91-36.04 181.5-36.04L181.5-36.04Q185.21-36.04 188.12-34.67 191.03-33.3 192.69-30.77 194.35-28.25 194.35-25.17L194.35-25.17 188.19-25.17Q188.19-27.95 186.45-29.53 184.7-31.1 181.45-31.1L181.45-31.1Q178.43-31.1 176.76-29.81 175.08-28.52 175.08-26.2L175.08-26.2Q175.08-24.24 176.89-22.94 178.7-21.63 182.85-20.4 187-19.17 189.51-17.59 192.03-16.02 193.2-13.98 194.37-11.94 194.37-9.2L194.37-9.2Q194.37-4.76 190.96-2.14 187.56 0.49 181.72 0.49L181.72 0.49Q177.87 0.49 174.63-0.94 171.4-2.37 169.6-4.88 167.81-7.4 167.81-10.74L167.81-10.74 173.98-10.74Q173.98-7.71 175.99-6.05 177.99-4.39 181.72-4.39L181.72-4.39Q184.95-4.39 186.57-5.7 188.19-7.01 188.19-9.16Z" opacity="1" transform="matrix(1,0,0,1,0,0)" fill="#ffdb99" class="undefined-text-0" data-fill-palette-color="primary" id="text-0">
    </path></svg></g></svg></g></svg></g></svg></g><g><svg viewBox="0 0 184.3736834338507 184.3736834338507" height="184.3736834338507" width="184.3736834338507"><g><svg></svg></g><g id="icon-0">
    <svg viewBox="0 0 184.3736834338507 184.3736834338507" height="184.3736834338507" width="184.3736834338507"><g><path d="M0 92.187c0-50.913 41.273-92.187 92.187-92.187 50.913 0 92.187 41.273 92.187 92.187 0 50.913-41.273 92.187-92.187 92.187-50.913 0-92.187-41.273-92.187-92.187zM92.187 177.545c47.142 0 85.358-38.216 85.358-85.358 0-47.142-38.216-85.358-85.358-85.358-47.142 0-85.358 38.216-85.358 85.358 0 47.142 38.216 85.358 85.358 85.358z" data-fill-palette-color="accent" fill="#ff5db2" stroke="transparent">
    </path></g><g transform="matrix(1,0,0,1,38.83848609128825,62.344303467998856)"><svg viewBox="0 0 106.69671125127418 59.68507649785298" height="59.68507649785298" width="106.69671125127418"><g>
    <svg version="1.1" xmlns="http://www.w3.org/2000/svg" xmlns:xlink="http://www.w3.org/1999/xlink" x="0" y="0" viewBox="1.8569999933242798 26.402000427246094 100 55.939002990722656" enable-background="new 1.857 26.402 100 55.938" xml:space="preserve" width="106.69671125127418" height="59.68507649785298" class="icon-x-0" data-fill-palette-color="accent" id="x-0">
    <path d="M18.887 26.402l50.194 5.42 23.748 13.597 1.418 2.696 7.61 3.896c0 0-1.128 8.168-11.441 5.473l-16.81-5.537L58.622 62.047l-6.24 20.294h-8.09V62.025H16.049L9.946 82.341H1.857V52.232L18.887 26.402z" fill="#ff5db2" data-fill-palette-color="accent"></path>
    <polygon points="72.629,55.141 63.472,68.375 68.544,82.341 76.745,82.341 " fill="#ff5db2" data-fill-palette-color="accent">
    </polygon>
    <polygon points="24.363,74.452 32.654,63.586 35.635,82.341 27.403,82.341 " fill="#ff5db2" data-fill-palette-color="accent">
    </polygon></svg></g></svg></g></svg></g></svg></g></svg></g></svg>
    <rect width="395.5199999999999" height="118.45027420690212" fill="none" stroke="none" visibility="hidden"></rect></g></svg></g>
</svg>